# xmcd
#
# Track frame offsets: 
#        150
#        19178
#        36528
#        60272
#        83313
#        95988
#        112376
#        127886
#        144734
#        158935
#        172286
#        185463
#
# Disc length: 2615 seconds
#
# Revision: 6
# Processed by: cddbd v1.5.2PL0 Copyright (c) Steve Scherf et al.
# Submitted via: ExactAudioCopyFreeDBPlugin 1.0
#
DISCID=aa0a350c
DTITLE=Συνήθεις Ύποπτοι - Μέρες Αδέσποτες
DYEAR=1995
DGENRE=Greek
TTITLE0=Ημερολόγιο
TTITLE1=Μέρες Αδέσποτες
TTITLE2=Βροχή μου
TTITLE3=Περικοπές Ενός Απόκρυφου Ευαγγελίου
TTITLE4=Κορώνα Γράμματα
TTITLE5=Τι Τι Χα
TTITLE6=Γορίλας
TTITLE7=Ζωή
TTITLE8=Απ' τον Παράδεισο
TTITLE9=Κόκκινο Θολό Φεγγάρι
TTITLE10=Θέλω να πιω μαζί σου ένα τσιγάρο
TTITLE11=Καλή σου Νυχτα
EXTD=YEAR: 1995
EXTT0=
EXTT1=
EXTT2=
EXTT3=
EXTT4=
EXTT5=
EXTT6=
EXTT7=
EXTT8=
EXTT9=
EXTT10=
EXTT11=
PLAYORDER=
